<?xml version="1.0" encoding="us-ascii" standalone="no"?><svg xmlns="http://www.w3.org/2000/svg" xmlns:xlink="http://www.w3.org/1999/xlink" contentStyleType="text/css" height="553px" preserveAspectRatio="none" style="width:1064px;height:553px;background:#FFFFFF;" version="1.1" viewBox="0 0 1064 553" width="1064px" zoomAndPan="magnify"><defs/><g><line style="stroke:#181818;stroke-width:0.5;stroke-dasharray:5.0,5.0;" x1="28" x2="28" y1="36.4883" y2="517.8359"/><line style="stroke:#181818;stroke-width:0.5;stroke-dasharray:5.0,5.0;" x1="337" x2="337" y1="36.4883" y2="517.8359"/><line style="stroke:#181818;stroke-width:0.5;stroke-dasharray:5.0,5.0;" x1="728" x2="728" y1="36.4883" y2="517.8359"/><rect fill="#E2E2F0" height="30.4883" rx="2.5" ry="2.5" style="stroke:#181818;stroke-width:0.5;" width="47" x="5" y="5"/><text fill="#000000" font-family="sans-serif" font-size="14" lengthAdjust="spacing" textLength="33" x="12" y="25.5352">DOM</text><rect fill="#E2E2F0" height="30.4883" rx="2.5" ry="2.5" style="stroke:#181818;stroke-width:0.5;" width="47" x="5" y="516.8359"/><text fill="#000000" font-family="sans-serif" font-size="14" lengthAdjust="spacing" textLength="33" x="12" y="537.3711">DOM</text><rect fill="#E2E2F0" height="30.4883" rx="2.5" ry="2.5" style="stroke:#181818;stroke-width:0.5;" width="79" x="298" y="5"/><text fill="#000000" font-family="sans-serif" font-size="14" lengthAdjust="spacing" textLength="65" x="305" y="25.5352">Javascript</text><rect fill="#E2E2F0" height="30.4883" rx="2.5" ry="2.5" style="stroke:#181818;stroke-width:0.5;" width="79" x="298" y="516.8359"/><text fill="#000000" font-family="sans-serif" font-size="14" lengthAdjust="spacing" textLength="65" x="305" y="537.3711">Javascript</text><rect fill="#E2E2F0" height="30.4883" rx="2.5" ry="2.5" style="stroke:#181818;stroke-width:0.5;" width="57" x="700" y="5"/><text fill="#000000" font-family="sans-serif" font-size="14" lengthAdjust="spacing" textLength="43" x="707" y="25.5352">Server</text><rect fill="#E2E2F0" height="30.4883" rx="2.5" ry="2.5" style="stroke:#181818;stroke-width:0.5;" width="57" x="700" y="516.8359"/><text fill="#000000" font-family="sans-serif" font-size="14" lengthAdjust="spacing" textLength="43" x="707" y="537.3711">Server</text><polygon fill="#181818" points="325.5,63.7988,335.5,67.7988,325.5,71.7988,329.5,67.7988" style="stroke:#181818;stroke-width:1.0;"/><line style="stroke:#181818;stroke-width:1.0;" x1="28.5" x2="331.5" y1="67.7988" y2="67.7988"/><text fill="#000000" font-family="sans-serif" font-size="13" lengthAdjust="spacing" textLength="170" x="35.5" y="63.0566">onClick/onSend/onEvent...</text><line style="stroke:#181818;stroke-width:1.0;" x1="337.5" x2="379.5" y1="97.1094" y2="97.1094"/><line style="stroke:#181818;stroke-width:1.0;" x1="379.5" x2="379.5" y1="97.1094" y2="110.1094"/><line style="stroke:#181818;stroke-width:1.0;" x1="338.5" x2="379.5" y1="110.1094" y2="110.1094"/><polygon fill="#181818" points="348.5,106.1094,338.5,110.1094,348.5,114.1094,344.5,110.1094" style="stroke:#181818;stroke-width:1.0;"/><text fill="#000000" font-family="sans-serif" font-size="13" lengthAdjust="spacing" textLength="244" x="344.5" y="92.3672">send(messageType + messagePayload)</text><polygon fill="#181818" points="39.5,135.4199,29.5,139.4199,39.5,143.4199,35.5,139.4199" style="stroke:#181818;stroke-width:1.0;"/><line style="stroke:#181818;stroke-width:1.0;" x1="33.5" x2="336.5" y1="139.4199" y2="139.4199"/><text fill="#000000" font-family="sans-serif" font-size="13" lengthAdjust="spacing" textLength="200" x="45.5" y="134.6777">load last render state from html</text><polygon fill="#181818" points="325.5,164.7305,335.5,168.7305,325.5,172.7305,329.5,168.7305" style="stroke:#181818;stroke-width:1.0;"/><line style="stroke:#181818;stroke-width:1.0;" x1="28.5" x2="331.5" y1="168.7305" y2="168.7305"/><text fill="#000000" font-family="sans-serif" font-size="13" lengthAdjust="spacing" textLength="285" x="35.5" y="163.9883">html meta header (id="_state") contains JSON</text><polygon fill="#181818" points="716.5,209.3516,726.5,213.3516,716.5,217.3516,720.5,213.3516" style="stroke:#181818;stroke-width:1.0;"/><line style="stroke:#181818;stroke-width:1.0;" x1="337.5" x2="722.5" y1="213.3516" y2="213.3516"/><text fill="#000000" font-family="sans-serif" font-size="13" lengthAdjust="spacing" textLength="137" x="344.5" y="193.2988">HTTP POST (fetch API)</text><text fill="#000000" font-family="sans-serif" font-size="13" lengthAdjust="spacing" textLength="367" x="344.5" y="208.6094">FormData(last render state + msgType + messagePayload)</text><line style="stroke:#181818;stroke-width:1.0;" x1="728.5" x2="770.5" y1="242.6621" y2="242.6621"/><line style="stroke:#181818;stroke-width:1.0;" x1="770.5" x2="770.5" y1="242.6621" y2="255.6621"/><line style="stroke:#181818;stroke-width:1.0;" x1="729.5" x2="770.5" y1="255.6621" y2="255.6621"/><polygon fill="#181818" points="739.5,251.6621,729.5,255.6621,739.5,259.6621,735.5,255.6621" style="stroke:#181818;stroke-width:1.0;"/><text fill="#000000" font-family="sans-serif" font-size="13" lengthAdjust="spacing" textLength="172" x="735.5" y="237.9199">unmarshal last render state</text><line style="stroke:#181818;stroke-width:1.0;" x1="728.5" x2="770.5" y1="284.9727" y2="284.9727"/><line style="stroke:#181818;stroke-width:1.0;" x1="770.5" x2="770.5" y1="284.9727" y2="297.9727"/><line style="stroke:#181818;stroke-width:1.0;" x1="729.5" x2="770.5" y1="297.9727" y2="297.9727"/><polygon fill="#181818" points="739.5,293.9727,729.5,297.9727,739.5,301.9727,735.5,297.9727" style="stroke:#181818;stroke-width:1.0;"/><text fill="#000000" font-family="sans-serif" font-size="13" lengthAdjust="spacing" textLength="322" x="735.5" y="280.2305">apply Message (Type + Payload) = new render state</text><line style="stroke:#181818;stroke-width:1.0;" x1="728.5" x2="770.5" y1="327.2832" y2="327.2832"/><line style="stroke:#181818;stroke-width:1.0;" x1="770.5" x2="770.5" y1="327.2832" y2="340.2832"/><line style="stroke:#181818;stroke-width:1.0;" x1="729.5" x2="770.5" y1="340.2832" y2="340.2832"/><polygon fill="#181818" points="739.5,336.2832,729.5,340.2832,739.5,344.2832,735.5,340.2832" style="stroke:#181818;stroke-width:1.0;"/><text fill="#000000" font-family="sans-serif" font-size="13" lengthAdjust="spacing" textLength="215" x="735.5" y="322.541">render template (new render state)</text><polygon fill="#181818" points="348.5,365.5938,338.5,369.5938,348.5,373.5938,344.5,369.5938" style="stroke:#181818;stroke-width:1.0;"/><line style="stroke:#181818;stroke-width:1.0;" x1="342.5" x2="727.5" y1="369.5938" y2="369.5938"/><text fill="#000000" font-family="sans-serif" font-size="13" lengthAdjust="spacing" textLength="250" x="354.5" y="364.8516">HTTP HTML Response or virtual redirect</text><polygon fill="#181818" points="716.5,394.9043,726.5,398.9043,716.5,402.9043,720.5,398.9043" style="stroke:#181818;stroke-width:1.0;"/><line style="stroke:#181818;stroke-width:1.0;stroke-dasharray:2.0,2.0;" x1="337.5" x2="722.5" y1="398.9043" y2="398.9043"/><text fill="#000000" font-family="sans-serif" font-size="13" lengthAdjust="spacing" textLength="339" x="344.5" y="394.1621">if redirect: fetch again (only with redirect state, if any)</text><polygon fill="#181818" points="348.5,424.2148,338.5,428.2148,348.5,432.2148,344.5,428.2148" style="stroke:#181818;stroke-width:1.0;"/><line style="stroke:#181818;stroke-width:1.0;stroke-dasharray:2.0,2.0;" x1="342.5" x2="727.5" y1="428.2148" y2="428.2148"/><text fill="#000000" font-family="sans-serif" font-size="13" lengthAdjust="spacing" textLength="206" x="354.5" y="423.4727">if redirect: HTTP HTML Response</text><line style="stroke:#181818;stroke-width:1.0;" x1="337.5" x2="379.5" y1="457.5254" y2="457.5254"/><line style="stroke:#181818;stroke-width:1.0;" x1="379.5" x2="379.5" y1="457.5254" y2="470.5254"/><line style="stroke:#181818;stroke-width:1.0;" x1="338.5" x2="379.5" y1="470.5254" y2="470.5254"/><polygon fill="#181818" points="348.5,466.5254,338.5,470.5254,348.5,474.5254,344.5,470.5254" style="stroke:#181818;stroke-width:1.0;"/><text fill="#000000" font-family="sans-serif" font-size="13" lengthAdjust="spacing" textLength="203" x="344.5" y="452.7832">calculate DOM delta (Idiomorph)</text><polygon fill="#181818" points="39.5,495.8359,29.5,499.8359,39.5,503.8359,35.5,499.8359" style="stroke:#181818;stroke-width:1.0;"/><line style="stroke:#181818;stroke-width:1.0;" x1="33.5" x2="336.5" y1="499.8359" y2="499.8359"/><text fill="#000000" font-family="sans-serif" font-size="13" lengthAdjust="spacing" textLength="199" x="45.5" y="495.0938">apply delta, CSS transitions etc.</text><!--SRC=[XLBHQeCm57tlLrpwbBBElGiTZBhHbZbb-ZWO5xsjOJ6H9BNuzukrQwrssrD8Siwvvnnk48Lm_mWRhD5acbVM1oMNWcTV3qec97DtFDSahUTvamjgo34EoKeo1dUKDXN17PnkCJP2OJuRa8CezA7z0876WdPyqc0iMeAjLYKKjXIJOEokVNVQ5g4WR3cCvulfvv4vdK6cf4Kk3MoIw6qmCo5Ta_PXbQOnn56I0jkIpGfuYjSp-90lIfS1McHZIowEsVqIh9Fj3zZB4hKfK8p3tK1ZLOa6mauLs6dAZpmiGDBXFutJjwMo4grVDkJqRVRhF7QnIiDNU2TJAMa8b8QQQxjtzZNbN5DchuhiZUNRCyI7halSkVg1AUao7RWjpe3Enxpbe6mkVWQ6hYJ7xlxOmGn5jZ-cRzSc9-5sXArphagbg-Bc0dRL7w5pM2O9M8tISClTA71nl6y0]--></g></svg>